<svg xmlns="http://www.w3.org/2000/svg" viewBox="0 0 24 16">
  <path fill="#fff" d="M0 0h24v16H0z"/>
  <path fill="#b22234" d="M0 0h24v1.23H0zm0 2.46h24v1.23H0zm0 2.46h24v1.23H0zm0 2.46h24v1.23H0zm0 2.46h24v1.23H0zm0 2.46h24v1.23H0zm0 2.47h24V16H0z"/>
  <path fill="#3c3b6e" d="M0 0h10.5v8.6H0z"/>
  <g fill="#fff">
    <circle cx="1.4" cy="1.1" r=".28"/><circle cx="3.1" cy="1.1" r=".28"/><circle cx="4.8" cy="1.1" r=".28"/><circle cx="6.5" cy="1.1" r=".28"/><circle cx="8.2" cy="1.1" r=".28"/>
    <circle cx="2.25" cy="2.25" r=".28"/><circle cx="3.95" cy="2.25" r=".28"/><circle cx="5.65" cy="2.25" r=".28"/><circle cx="7.35" cy="2.25" r=".28"/><circle cx="9.05" cy="2.25" r=".28"/>
    <circle cx="1.4" cy="3.4" r=".28"/><circle cx="3.1" cy="3.4" r=".28"/><circle cx="4.8" cy="3.4" r=".28"/><circle cx="6.5" cy="3.4" r=".28"/><circle cx="8.2" cy="3.4" r=".28"/>
    <circle cx="2.25" cy="4.55" r=".28"/><circle cx="3.95" cy="4.55" r=".28"/><circle cx="5.65" cy="4.55" r=".28"/><circle cx="7.35" cy="4.55" r=".28"/><circle cx="9.05" cy="4.55" r=".28"/>
    <circle cx="1.4" cy="5.7" r=".28"/><circle cx="3.1" cy="5.7" r=".28"/><circle cx="4.8" cy="5.7" r=".28"/><circle cx="6.5" cy="5.7" r=".28"/><circle cx="8.2" cy="5.7" r=".28"/>
    <circle cx="2.25" cy="6.85" r=".28"/><circle cx="3.95" cy="6.85" r=".28"/><circle cx="5.65" cy="6.85" r=".28"/><circle cx="7.35" cy="6.85" r=".28"/><circle cx="9.05" cy="6.85" r=".28"/>
  </g>
</svg>
